<svg xmlns="http://www.w3.org/2000/svg" width="32" height="32" fill="none">
  <path fill="#fff" d="M12 20a1.334 1.334 0 1 0 0 2.667A1.334 1.334 0 0 0 12 20Zm-9.333-1.333A1.333 1.333 0 0 0 1.334 20v2.667a1.333 1.333 0 1 0 2.666 0V20a1.333 1.333 0 0 0-1.333-1.333Zm26.666 0A1.333 1.333 0 0 0 28 20v2.667a1.333 1.333 0 1 0 2.667 0V20a1.333 1.333 0 0 0-1.334-1.333Zm-6.666-9.334h-5.334V7.627a2.667 2.667 0 0 0 1.334-2.294 2.667 2.667 0 1 0-5.334 0 2.667 2.667 0 0 0 1.334 2.294v1.706H9.334a4 4 0 0 0-4 4v12a4 4 0 0 0 4 4h13.333a4 4 0 0 0 4-4v-12a4 4 0 0 0-4-4ZM18.294 12l-.667 2.667h-3.253L13.707 12h4.587ZM24 25.333a1.333 1.333 0 0 1-1.333 1.334H9.333A1.333 1.333 0 0 1 8 25.333v-12A1.333 1.333 0 0 1 9.334 12h1.626L12 16.32a1.333 1.333 0 0 0 1.334 1.013h5.333A1.333 1.333 0 0 0 20 16.32L21.04 12h1.627A1.333 1.333 0 0 1 24 13.333v12ZM20 20a1.334 1.334 0 1 0 0 2.667A1.334 1.334 0 0 0 20 20Z"/>
</svg>